<svg width="322" height="320" viewBox="0 0 322 320" fill="none" xmlns="http://www.w3.org/2000/svg">
<path fill-rule="evenodd" clip-rule="evenodd" d="M321.999 160.314C321.999 248.584 250.186 319.659 161 319.659C71.8127 319.659 0 248.584 0 160.314C0 72.0443 72.3919 0.969727 161 0.969727C250.186 0.969727 321.999 72.6175 321.999 160.314Z" fill="#EEEEF6"/>
<path d="M164.478 292.146C191.026 292.146 212.546 270.846 212.546 244.572C212.546 218.298 191.026 196.998 164.478 196.998C137.931 196.998 116.41 218.298 116.41 244.572C116.41 270.846 137.931 292.146 164.478 292.146Z" fill="#3BE893"/>
<path d="M54.4406 41.0926C60.232 42.239 66.0233 43.3854 72.3938 43.3854C101.93 43.3854 127.991 26.7631 140.732 2.68945C108.3 6.70173 78.1852 20.4581 54.4406 41.0926ZM1.16022 175.217C4.63503 210.181 19.1134 241.706 41.1205 266.353C43.4371 259.475 44.5953 252.024 44.5953 243.999C44.5953 213.62 26.6422 187.827 1.16022 175.217Z" fill="#3BE893"/>
<path fill-rule="evenodd" clip-rule="evenodd" d="M175.478 1.54382C155.787 22.1784 143.046 50.2643 143.046 81.2161C143.046 145.412 195.169 196.999 260.032 196.999C282.039 196.999 302.888 190.694 320.841 179.803C321.42 173.498 321.999 166.62 321.999 160.315C321.999 77.2038 257.715 8.99519 175.478 1.54382Z" fill="#3BE893"/>
</svg>
